# xmcd
#
# Track frame offsets:
#	150
#	17663
#	34196
#	57759
#	92789
#	111383
#	142534
#	178394
#	204909
#	249494
#	265437
#	270507
#	287230
#
# Disc length: 4209 seconds
#
# Revision: 1
# Processed by: cddbd v1.5.2PL0 Copyright (c) Steve Scherf et al.
# Submitted via: audiograbber 1.83.01
#
DISCID=ba106f0d
DTITLE=Grateful Dead - 71-08-14 Berkeley Community Theatre, Berkeley CA
DYEAR=1900
DGENRE=
TTITLE0=Truckin'
TTITLE1=Drums
TTITLE2=The Other One
TTITLE3=Jam
TTITLE4=The Other One
TTITLE5=Me and Bobby McGee
TTITLE6=Sugar Magnolia
TTITLE7=Not Fade Away
TTITLE8=Going Down The Road Feeling Bad
TTITLE9=Not Fade Away
TTITLE10="Happy Birthday David Crosby"
TTITLE11=Johnny B Goode
TTITLE12=Uncle John's Band
EXTD=
EXTT0=
EXTT1=
EXTT2=
EXTT3=
EXTT4=
EXTT5=
EXTT6=
EXTT7=
EXTT8=
EXTT9=
EXTT10=
EXTT11=
EXTT12=
PLAYORDER=
